# xmcd
#
# Track frame offsets:
#	150
#	16324
#	42569
#	64493
#	88421
#	104153
#	131262
#	148849
#	165149
#	188788
#
# Disc length: 2870 seconds
#
# Revision: 0
# Processed by: cddbd v1.5.2PL0 Copyright (c) Steve Scherf et al.
# Submitted via: dBpowerAMP V4.0
#
DISCID=900b340a
DTITLE=Mayfield - Mayfield
DYEAR=2012
DGENRE=Bluegrass
TTITLE0=Hell and a Loaded Gun
TTITLE1=The Bottle Never Lies
TTITLE2=Annie Gets Her Gun
TTITLE3=Apollo's Lament
TTITLE4=I'll See You Soon
TTITLE5=My Shotgun Philosophy
TTITLE6=Kansas (Lions, Tigers, and Lovers, Oh My)
TTITLE7=A Song For Staying In
TTITLE8=God Willing (Either Way)
TTITLE9=The Wedding Song
EXTD=Debut album from the San Diego, CA group Mayfield
EXTT0=
EXTT1=
EXTT2=
EXTT3=
EXTT4=
EXTT5=
EXTT6=
EXTT7=
EXTT8=
EXTT9=
PLAYORDER=
